<?xml version="1.0" standalone="no"?>
<!DOCTYPE svg PUBLIC "-//W3C//DTD SVG 20010904//EN"
 "http://www.w3.org/TR/2001/REC-SVG-20010904/DTD/svg10.dtd">
<svg version="1.0" xmlns="http://www.w3.org/2000/svg"
 width="260.000000pt" height="260.000000pt" viewBox="0 0 260.000000 260.000000"
 preserveAspectRatio="xMidYMid meet">
<metadata>
Created by potrace 1.11, written by Peter Selinger 2001-2013
</metadata>
<g transform="translate(0.000000,260.000000) scale(0.100000,-0.100000)"
fill="#000000" stroke="none">
<path d="M1200 2473 c-538 -80 -937 -450 -1057 -978 -24 -107 -25 -338 -3
-460 81 -437 372 -784 787 -940 60 -23 95 -33 178 -51 101 -22 345 -27 445 -9
442 80 798 375 954 787 50 135 70 252 70 418 1 137 -7 241 -19 260 -2 4 -7 21
-10 39 -10 55 -56 183 -92 256 -119 236 -309 429 -539 547 -92 47 -212 92
-274 103 -19 3 -51 11 -70 16 -34 10 -320 20 -370 12z m377 -117 c147 -32 288
-92 414 -176 82 -55 233 -207 288 -287 85 -128 153 -288 181 -430 18 -90 20
-306 4 -397 -82 -467 -437 -832 -901 -927 -90 -18 -306 -20 -398 -3 -457 84
-808 413 -916 861 -23 95 -32 329 -16 428 69 434 392 794 819 914 41 12 101
24 133 27 33 4 62 9 65 11 10 10 257 -6 327 -21z"/>
<path d="M740 1864 c-154 -41 -251 -157 -252 -303 -1 -140 79 -237 289 -350
227 -123 282 -173 291 -260 11 -119 -103 -217 -242 -206 -66 5 -118 30 -169
82 -44 43 -87 121 -87 157 0 36 -32 70 -58 62 -27 -9 -32 -27 -39 -139 -10
-162 -9 -167 18 -188 26 -21 125 -54 201 -68 50 -9 214 -7 260 3 99 22 196 99
244 193 26 53 29 67 29 158 0 183 -49 241 -335 393 -198 105 -243 143 -253
213 -13 82 91 169 204 169 105 0 187 -68 220 -181 15 -50 26 -61 54 -52 30 9
33 17 34 132 2 124 2 124 -94 167 -49 21 -78 26 -160 29 -64 2 -119 -2 -155
-11z"/>
<path d="M1800 1868 c-187 -21 -332 -109 -440 -267 -48 -71 -77 -135 -97 -213
-14 -53 -12 -235 3 -298 45 -197 178 -338 378 -405 93 -31 137 -37 276 -37
114 0 194 10 280 36 l45 13 23 84 c36 134 41 167 27 185 -19 26 -58 11 -78
-30 -23 -49 -83 -113 -134 -142 -101 -60 -272 -70 -374 -22 -152 70 -229 219
-232 448 -2 118 7 182 34 263 42 120 125 218 225 264 63 28 81 32 155 34 123
3 245 -68 286 -166 17 -42 20 -45 56 -45 42 0 41 -4 38 119 -1 93 -14 113 -88
141 -107 40 -243 53 -383 38z"/>
</g>
</svg>
