<?xml version="1.0" standalone="no"?>
<!DOCTYPE svg PUBLIC "-//W3C//DTD SVG 20010904//EN"
 "http://www.w3.org/TR/2001/REC-SVG-20010904/DTD/svg10.dtd">
<svg version="1.0" xmlns="http://www.w3.org/2000/svg"
 width="578.000000pt" height="578.000000pt" viewBox="0 0 578.000000 578.000000"
 preserveAspectRatio="xMidYMid meet">
<metadata>
Created by potrace 1.11, written by Peter Selinger 2001-2013
</metadata>
<g transform="translate(0.000000,578.000000) scale(0.100000,-0.100000)"
fill="#000000" stroke="none">
<path d="M3515 4043 c-179 -15 -374 -114 -522 -265 -223 -227 -328 -570 -301
-981 33 -518 298 -862 731 -952 111 -23 347 -20 445 5 95 26 193 71 296 138
43 29 87 52 97 52 30 0 56 -45 63 -110 l7 -60 41 0 41 0 -6 182 c-4 99 -7 264
-7 365 l0 183 -39 0 -39 0 -12 -82 c-30 -196 -60 -294 -117 -376 -75 -110
-178 -179 -333 -221 -103 -29 -262 -29 -348 -1 -256 84 -417 315 -493 705 -10
48 -14 148 -13 320 0 231 2 259 26 370 75 343 227 566 440 641 161 56 408 21
560 -80 147 -97 220 -220 268 -456 12 -58 24 -108 27 -112 5 -10 45 -10 59 0
8 5 12 114 15 352 l4 345 -33 3 c-36 4 -36 4 -52 -79 -13 -66 -42 -103 -73
-93 -11 3 -39 20 -61 36 -204 148 -389 195 -671 171z"/>
<path d="M1810 4030 c-14 -4 -50 -15 -80 -24 -75 -22 -141 -62 -201 -121 -62
-61 -91 -108 -119 -198 -19 -59 -21 -85 -18 -190 5 -144 24 -207 94 -309 79
-116 172 -189 505 -398 165 -103 252 -173 307 -248 65 -88 82 -131 89 -227 7
-106 -14 -188 -68 -265 -74 -106 -170 -150 -324 -150 -100 0 -185 22 -262 66
-43 25 -115 104 -150 165 -54 94 -108 282 -115 399 -3 44 -4 45 -41 48 -24 2
-39 -1 -42 -10 -2 -7 -5 -172 -7 -366 l-3 -352 36 0 c35 0 37 2 49 48 14 49
35 82 54 82 6 0 40 -16 76 -35 188 -101 241 -115 433 -115 149 0 200 8 304 48
150 57 256 163 310 311 25 69 28 88 28 206 0 145 -13 201 -68 290 -77 126
-186 221 -422 369 -60 38 -164 103 -230 145 -232 147 -316 258 -318 421 -1
103 22 167 85 236 77 84 151 114 281 114 229 0 388 -148 456 -423 11 -47 21
-99 21 -116 0 -24 5 -32 25 -37 14 -3 31 -4 38 -1 19 7 27 125 28 402 l1 220
-35 3 c-33 3 -36 1 -42 -30 -12 -56 -36 -98 -56 -98 -25 0 -65 18 -117 53 -55
36 -118 65 -188 83 -59 15 -271 18 -314 4z"/>
</g>
</svg>
